<svg width="58" height="58" viewBox="0 0 58 58" fill="none" xmlns="http://www.w3.org/2000/svg">
<rect width="58" height="58" fill="#D9D9D9"/>
<path d="M10 44C9.81333 44 9.64 43.92 9.48 43.76C9.29333 43.6 9.2 43.3733 9.2 43.08C9.2 42.8667 9.26667 42.6 9.4 42.28C9.53333 41.96 9.77333 41.6133 10.12 41.24C10.7333 39.88 11.3067 38.7733 11.84 37.92C12.4 37.0667 13.0267 36.1467 13.72 35.16C13.3733 35.1067 13.12 34.9867 12.96 34.8C12.8 34.5867 12.72 34.3467 12.72 34.08C12.72 33.6533 12.84 33.2533 13.08 32.88C13.3467 32.48 13.5867 32.28 13.8 32.28C14.12 32.28 14.4533 32.24 14.8 32.16C15.1733 32.08 15.5467 32.04 15.92 32.04C16.88 30.6533 17.6533 29.5067 18.24 28.6C18.8533 27.6933 19.3467 26.96 19.72 26.4C20.0933 25.84 20.4133 25.3733 20.68 25C20.9733 24.6267 21.2667 24.28 21.56 23.96C21.8533 23.6133 22.2133 23.2133 22.64 22.76C23.0667 22.3067 23.6267 21.7333 24.32 21.04C23.9733 20.32 23.8 19.6133 23.8 18.92C23.8 17.96 24.08 17.1733 24.64 16.56C25.2 15.9467 25.7867 15.64 26.4 15.64C26.72 15.64 27.0133 15.7333 27.28 15.92C27.5733 16.08 27.8133 16.3733 28 16.8C28.7467 18.5067 29.2667 20.68 29.56 23.32C29.88 25.96 30.0933 28.76 30.2 31.72C32.2 31.88 33.5867 32.24 34.36 32.8C34.0133 32.9067 33.48 33.0267 32.76 33.16C32.04 33.2667 31.1867 33.3867 30.2 33.52C30.2 34.5867 30.2133 35.6667 30.24 36.76C30.2667 37.8533 30.28 38.9333 30.28 40C30.28 41.4933 30.16 42.5333 29.92 43.12C29.7067 43.7067 29.4933 44 29.28 44C28.9867 44 28.84 43.7333 28.84 43.2C28.84 41.4133 28.76 39.7467 28.6 38.2C28.44 36.6267 28.2133 35.16 27.92 33.8C26.6133 33.9333 25.2267 34.08 23.76 34.24C22.32 34.3733 20.88 34.5067 19.44 34.64C18 34.7733 16.6667 34.9067 15.44 35.04C14.5867 36.3733 13.7333 37.7733 12.88 39.24C12.0533 40.7067 11.2533 42.2 10.48 43.72C10.4 43.9067 10.24 44 10 44ZM17.6 31.88C19.1733 31.7467 20.8267 31.6667 22.56 31.64C24.2933 31.5867 25.9333 31.56 27.48 31.56C27.0267 29.6667 26.5333 28 26 26.56C25.4933 25.0933 25.0933 23.84 24.8 22.8C24.1067 23.4933 23.1067 24.6267 21.8 26.2C20.52 27.7733 19.12 29.6667 17.6 31.88ZM39.9659 42.92C38.8993 42.92 37.8993 42.72 36.9659 42.32C36.0326 41.9467 35.2726 41.3467 34.6859 40.52C34.2059 39.8267 33.8726 39.16 33.6859 38.52C33.4993 37.8533 33.4059 37.2267 33.4059 36.64C33.4059 36.08 33.4726 35.5733 33.6059 35.12C33.7393 34.64 33.8993 34.2533 34.0859 33.96C34.6459 33 35.2326 32.2 35.8459 31.56C36.4859 30.92 37.1793 30.3467 37.9259 29.84C38.9126 29.2 40.1259 28.88 41.5659 28.88C42.0993 28.88 42.6593 29.0933 43.2459 29.52C43.8326 29.9467 44.6859 30.3867 45.8059 30.84C46.5526 31.1333 47.2459 31.48 47.8859 31.88C48.5526 32.2533 49.0859 32.64 49.4859 33.04C49.9126 33.4133 50.1259 33.7733 50.1259 34.12C50.1259 34.4933 49.8193 34.8 49.2059 35.04C48.3259 35.3333 47.2859 35.6 46.0859 35.84C44.8859 36.0533 43.6859 36.2267 42.4859 36.36C41.3126 36.4933 40.2726 36.56 39.3659 36.56C38.6726 36.56 38.1393 36.52 37.7659 36.44C37.6059 37.0267 37.5259 37.64 37.5259 38.28C37.5259 38.8133 37.6059 39.3467 37.7659 39.88C37.9259 40.4133 38.1926 40.9067 38.5659 41.36C38.8326 41.6533 39.1259 41.8667 39.4459 42C39.7926 42.1067 40.1393 42.16 40.4859 42.16C41.0726 42.16 41.6459 42.0667 42.2059 41.88C42.7926 41.6667 43.2993 41.4533 43.7259 41.24C44.1526 41 44.4193 40.84 44.5259 40.76C45.0593 40.44 45.4593 40.2 45.7259 40.04C46.0193 39.88 46.2993 39.8 46.5659 39.8C47.0459 39.8 47.2859 39.9067 47.2859 40.12C47.2859 40.2533 47.1526 40.4533 46.8859 40.72C46.6193 40.96 46.1526 41.24 45.4859 41.56C44.6326 41.9867 43.7259 42.32 42.7659 42.56C41.8326 42.8 40.8993 42.92 39.9659 42.92ZM40.2859 35.24C41.1393 35.24 42.1393 35.2 43.2859 35.12C44.4326 35.0133 45.6726 34.84 47.0059 34.6C47.7526 34.44 48.1259 34.2133 48.1259 33.92C48.1259 33.68 47.9526 33.4267 47.6059 33.16C47.2859 32.8667 46.8726 32.6 46.3659 32.36C45.8859 32.12 45.4059 31.92 44.9259 31.76C44.4726 31.5733 44.1259 31.48 43.8859 31.48C42.7393 31.48 41.7526 31.72 40.9259 32.2C40.1259 32.68 39.4326 33.3067 38.8459 34.08C38.6593 34.32 38.4593 34.6667 38.2459 35.12C38.6993 35.2 39.3793 35.24 40.2859 35.24Z" fill="black"/>
</svg>
