<svg width="20" height="20" viewBox="0 0 20 20" fill="none" xmlns="http://www.w3.org/2000/svg">
<path d="M12.5001 18.3333V15C12.616 13.9561 12.3167 12.9084 11.6667 12.0833C14.1667 12.0833 16.6667 10.4167 16.6667 7.49999C16.7334 6.45832 16.4417 5.43332 15.8334 4.58332C16.0667 3.62499 16.0667 2.62499 15.8334 1.66666C15.8334 1.66666 15.0001 1.66666 13.3334 2.91666C11.1334 2.49999 8.86672 2.49999 6.66672 2.91666C5.00005 1.66666 4.16672 1.66666 4.16672 1.66666C3.91672 2.62499 3.91672 3.62499 4.16672 4.58332C3.55995 5.42989 3.26544 6.46065 3.33338 7.49999C3.33338 10.4167 5.83338 12.0833 8.33338 12.0833C8.00838 12.4917 7.76672 12.9583 7.62505 13.4583C7.48338 13.9583 7.44172 14.4833 7.50005 15M7.50005 15V18.3333M7.50005 15C3.74172 16.6667 3.33335 13.3333 1.66669 13.3333" stroke="currentColor" stroke-width="2" stroke-linecap="round" stroke-linejoin="round"/>
</svg>
